<svg width="63" height="63" viewBox="0 0 63 63" fill="none" xmlns="http://www.w3.org/2000/svg">
<path fill-rule="evenodd" clip-rule="evenodd" d="M27.2617 0.252957C31.9058 3.86383 38.4039 7.19567 47.0775 8.83467C49.8526 9.35906 52.4085 9.82236 54.7691 10.2401C56.3201 11.9435 57.3857 13.5118 58.5698 15.5994C57.86 15.4768 57.5042 15.4691 56.7477 15.339C52.6707 14.6381 47.9294 13.7737 42.4323 12.7349C31.7033 10.7073 25.2535 5.92432 20.8286 1.79759C23.0402 0.970915 24.9873 0.561207 27.2617 0.252957ZM32.8644 0C36.7088 2.32392 41.6043 4.35513 47.7056 5.50814C48.4611 5.65094 49.2025 5.78963 49.9304 5.92432C44.9298 2.31998 38.9769 0.271048 32.8644 0ZM41.7277 16.3214C29.6079 14.0312 21.735 8.43576 17.2347 3.3918C16.8459 3.58982 16.4595 3.79658 16.0758 4.01227C14.7898 4.73499 13.6422 5.35723 12.4995 6.22459C13.7929 7.93008 15.8475 9.92516 18.4863 11.9536C22.8479 15.306 28.8058 18.6219 36.8161 20.5472C45.5432 22.6449 52.3094 23.822 57.5288 24.7138C58.7382 24.9204 59.857 25.0464 60.9127 25.2346C61.4598 25.3318 61.961 25.3984 62.4742 25.495C62.0952 23.451 61.5091 21.6655 60.706 19.6835C59.304 19.4365 57.7996 19.1784 56.1797 18.9001L56.1787 18.9002L56.178 18.8999C52.1417 18.2072 47.638 17.6827 41.7277 16.3214ZM30.7099 23.0173C32.1572 24.7664 33.4863 26.6494 34.6783 28.6618C36.0849 28.9941 37.8545 29.4082 39.4718 29.7772C41.5823 30.2586 43.2932 30.6309 43.7096 30.6861C44.7779 30.8276 54.5036 32.3442 62.811 34.9037C62.9961 33.2199 63.0463 31.5168 62.957 29.8117C62.1185 29.6416 61.2032 29.4709 60.2003 29.2923C59.1711 29.1094 58.0608 28.9196 56.8652 28.7154H56.8646C51.6422 27.8229 44.7854 26.6517 35.9195 24.5204C34.0968 24.0824 32.3603 23.5771 30.7099 23.0173ZM3.78812 16.5038C4.5882 15.019 5.51011 13.5933 6.54927 12.2432C16.5128 15.5994 25.6619 22.06 31.2843 32.0742C36.8608 42.0063 37.3525 52.7298 35.1473 62.7906C33.57 62.9738 31.9895 63.0359 30.4185 62.9804C32.7312 53.5845 31.6843 43.5109 26.6988 34.6308C21.5965 25.5436 13.2816 19.3302 3.78812 16.5038ZM43.5219 34.2861C44.5974 34.4289 54.0927 36.2302 62.2494 38.3969C61.83 40.2951 61.1635 41.8245 60.4031 43.616C51.7908 40.4402 43.8294 39.0116 39.1948 38.8087C38.5952 36.7831 37.7268 34.9414 36.8161 32.9773C37.4698 33.129 38.1768 33.2015 38.8151 33.347C40.8249 33.8057 42.9059 34.2046 43.5219 34.2861ZM39.944 42.2704C40.2634 43.7962 40.5961 45.3605 40.7494 46.8955C42.9755 47.365 46.0768 47.9458 49.401 49.299C51.3156 50.0781 53.3117 51.0566 55.1715 52.2816C56.6447 50.6035 57.5292 49.2379 58.6 47.3174C51.23 44.0881 44.3607 42.5873 39.944 42.2704ZM47.9061 52.7298C49.51 53.3829 50.9963 54.0642 52.442 54.9596C50.8631 56.401 49.8089 57.1792 47.8983 58.3067C45.1589 57.0571 42.4307 55.9141 40.6102 55.4423C40.8374 53.4867 40.7287 52.4931 40.6907 50.5128C42.7083 50.9742 45.2406 51.645 47.9061 52.7298ZM40.0897 59.0879C39.9227 59.9422 39.6464 61.1446 39.4294 61.9872C40.8095 61.6273 42.388 60.9483 43.7336 60.3901C42.3969 59.8746 41.0789 59.3578 40.0897 59.0879ZM0.845488 38.7483C1.50806 41.5408 2.56613 44.2891 4.04112 46.9161C5.93652 50.2922 8.36079 53.1839 11.1517 55.5457C10.8411 52.4113 9.92944 49.428 8.40119 46.706C6.5899 43.48 4.01483 40.803 0.845488 38.7483ZM0.0848545 33.8218C5.03201 36.3031 9.10491 39.9835 11.8051 44.7931C14.1652 48.9965 15.2435 53.6469 15.1733 58.4361C16.3388 59.1414 17.5458 59.7682 18.7858 60.3146C19.4395 53.7595 18.2268 47.1913 14.9619 41.3763C11.5899 35.3703 6.39289 30.8164 0.198668 27.9799C-0.0188854 29.9099 -0.0592186 31.8658 0.0848545 33.8218ZM18.3659 39.4631C14.3654 32.3377 8.18767 27.1084 0.904857 24.0082C1.22979 22.6784 1.64071 21.3701 2.13509 20.0924C10.9438 22.5793 18.6414 28.256 23.2946 36.5438C27.8445 44.6476 28.749 53.9394 26.4868 62.5936C25.1633 62.3792 23.8554 62.0811 22.5712 61.7015C23.5368 54.0977 22.2437 46.3698 18.3659 39.4631Z" fill="#0005FF"/>
</svg>
