<svg width="37" height="37" viewBox="0 0 37 37" fill="none" xmlns="http://www.w3.org/2000/svg">
<path fill-rule="evenodd" clip-rule="evenodd" d="M16.0108 0.148562C18.7383 2.26923 22.5546 4.22603 27.6487 5.18861C29.2785 5.49659 30.7796 5.76869 32.166 6.01401C33.0769 7.01445 33.7027 7.93552 34.3982 9.16154C33.9813 9.08954 33.7723 9.08504 33.328 9.0086C30.9336 8.59699 28.149 8.08931 24.9206 7.47921C18.6194 6.28844 14.8314 3.47936 12.2327 1.05573C13.5316 0.57022 14.6751 0.329598 16.0108 0.148562ZM19.3013 0C21.5591 1.36484 24.4343 2.55777 28.0176 3.23494C28.4613 3.31881 28.8967 3.40026 29.3242 3.47936C26.3874 1.36253 22.8912 0.159187 19.3013 0ZM24.5068 9.58561C17.3887 8.24055 12.765 4.95434 10.122 1.99201C9.89361 2.10831 9.66671 2.22974 9.44133 2.35641C8.68605 2.78087 8.0121 3.14631 7.34097 3.65571C8.10059 4.65735 9.30728 5.82906 10.857 7.02039C13.4186 8.98926 16.9177 10.9367 21.6222 12.0674C26.7476 13.2994 30.7214 13.9907 33.7868 14.5145C34.497 14.6358 35.1541 14.7098 35.7741 14.8203C36.0955 14.8774 36.3898 14.9165 36.6912 14.9732C36.4686 13.7728 36.1244 12.7242 35.6527 11.5601C34.8293 11.4151 33.9458 11.2635 32.9944 11.1001L32.9938 11.1001L32.9934 11.0999C30.6229 10.6931 27.9779 10.3851 24.5068 9.58561ZM18.036 13.5181C18.886 14.5453 19.6666 15.6512 20.3666 16.8331C21.1927 17.0283 22.232 17.2715 23.1818 17.4882C24.4214 17.7709 25.4261 17.9896 25.6707 18.022C26.2981 18.1051 32.0101 18.9958 36.889 20.499C36.9977 19.5101 37.0272 18.5099 36.9747 17.5085C36.4823 17.4086 35.9447 17.3083 35.3557 17.2034C34.7513 17.096 34.0992 16.9845 33.397 16.8646H33.3967C30.3295 16.3404 26.3025 15.6526 21.0956 14.4009C20.0251 14.1436 19.0053 13.8469 18.036 13.5181ZM2.22477 9.69269C2.69466 8.82068 3.23609 7.98334 3.8464 7.19044C9.69797 9.16154 15.0713 12.9559 18.3733 18.8372C21.6484 24.6704 21.9372 30.9683 20.6421 36.877C19.7157 36.9846 18.7875 37.0211 17.8648 36.9885C19.2231 31.4703 18.6082 25.554 15.6803 20.3387C12.6837 15.0018 7.80032 11.3527 2.22477 9.69269ZM25.5605 20.1363C26.1921 20.2201 31.7688 21.278 36.5592 22.5506C36.3129 23.6654 35.9214 24.5636 35.4748 25.6157C30.4168 23.7506 25.7411 22.9116 23.0192 22.7924C22.667 21.6028 22.157 20.5212 21.6222 19.3676C22.0061 19.4567 22.4213 19.4993 22.7962 19.5847C23.9765 19.8541 25.1987 20.0884 25.5605 20.1363ZM23.4592 24.8255C23.6467 25.7216 23.8422 26.6403 23.9322 27.5418C25.2396 27.8175 27.061 28.1587 29.0133 28.9534C30.1378 29.411 31.31 29.9856 32.4023 30.7051C33.2675 29.7195 33.787 28.9175 34.4159 27.7896C30.0874 25.893 26.0531 25.0116 23.4592 24.8255ZM28.1353 30.9683C29.0773 31.3519 29.9502 31.752 30.7992 32.2779C29.872 33.1244 29.2529 33.5814 28.1307 34.2436C26.5219 33.5097 24.9196 32.8384 23.8505 32.5613C23.9838 31.4128 23.92 30.8293 23.8977 29.6663C25.0827 29.9372 26.5699 30.3312 28.1353 30.9683ZM23.5448 34.7024C23.4467 35.2042 23.2844 35.9103 23.157 36.4052C23.9675 36.1938 24.8946 35.795 25.6848 35.4672C24.8998 35.1644 24.1257 34.8609 23.5448 34.7024ZM0.496556 22.7569C0.885686 24.397 1.50709 26.011 2.37336 27.5539C3.48653 29.5367 4.9103 31.235 6.54941 32.6221C6.36698 30.7813 5.83158 29.0291 4.93403 27.4305C3.87026 25.5359 2.35792 23.9637 0.496556 22.7569ZM0.0498352 19.8636C2.95531 21.3209 5.34733 23.4824 6.93318 26.307C8.31924 28.7757 8.95254 31.5069 8.91133 34.3196C9.59578 34.7338 10.3047 35.102 11.0329 35.4228C11.4168 31.573 10.7046 27.7155 8.78716 24.3004C6.80676 20.773 3.75456 18.0985 0.116678 16.4326C-0.0110914 17.5661 -0.0347792 18.7148 0.0498352 19.8636ZM10.7863 23.1767C8.43683 18.992 4.80863 15.9208 0.531424 14.1001C0.722259 13.3191 0.963593 12.5507 1.25394 11.8003C6.42733 13.2608 10.9481 16.5948 13.6809 21.4622C16.3531 26.2216 16.8843 31.6787 15.5558 36.7613C14.7784 36.6354 14.0103 36.4603 13.2561 36.2374C13.8232 31.7717 13.0638 27.233 10.7863 23.1767Z" fill="white"/>
</svg>
