<svg width="230" height="69" viewBox="0 0 230 69" fill="none" xmlns="http://www.w3.org/2000/svg">
<path d="M90.6641 53.0986C90.664 53.2311 90.6304 53.367 90.5273 53.4678C90.425 53.5678 90.2879 53.6006 90.1553 53.6006H82.6045C82.4704 53.6006 82.3335 53.5658 82.2314 53.4629C82.1296 53.3602 82.0957 53.223 82.0957 53.0889V1.6416C82.0957 1.42087 82.1806 1.20711 82.333 1.04883C82.4856 0.890541 82.694 0.799907 82.9131 0.799805H89.9033C90.1527 0.799868 90.3915 0.899989 90.5674 1.07715C90.7433 1.25448 90.8418 1.495 90.8418 1.74512V14.8994C90.8418 14.994 90.8518 15.0543 90.8633 15.0889V15.0898H90.8643C90.8986 15.0785 90.9527 15.0496 91.0283 14.9932L91.0293 14.9922C94.6077 12.377 98.1273 11.1402 101.583 11.3096C105.039 11.479 108.402 13.0536 111.67 16.0049L112.029 16.3418C113.681 17.9597 114.992 20.2009 115.968 23.0537L116.172 23.6748L116.265 23.9951C116.712 25.6659 116.933 28.4144 116.938 32.2207C116.945 43.0205 116.939 49.9309 116.92 52.9492C116.919 53.1237 116.85 53.2911 116.728 53.415C116.604 53.5393 116.437 53.6093 116.262 53.6094H109.281C109.081 53.6094 108.89 53.5296 108.749 53.3877C108.608 53.2458 108.529 53.0535 108.529 52.8535C108.534 42.6499 108.527 35.5576 108.507 31.5762L108.482 28.6318C108.431 25.6723 107.294 23.2385 105.062 21.3184L104.602 20.9414C102.964 19.6636 100.98 19.1436 98.6357 19.3965L98.6367 19.3975C96.2804 19.6565 94.3905 20.6075 92.9541 22.2451L92.9531 22.2441C91.5072 23.8974 90.7613 26.0986 90.7305 28.8662C90.6556 36.5472 90.6329 44.6244 90.6641 53.0977V53.0986Z" fill="white" stroke="white" stroke-width="0.4"/>
<path d="M13.627 11.4196C15.4534 11.1831 17.3104 11.3496 19.1943 11.9166C21.0145 12.4644 22.7136 13.3399 24.291 14.5416L24.292 14.5426C25.8755 15.7507 27.192 17.1789 28.2402 18.8268C28.3767 19.0389 28.428 19.2949 28.3848 19.5436C28.3416 19.7917 28.2064 20.0137 28.0068 20.1666L28.0078 20.1676L23.7031 23.5065C23.4979 23.6667 23.2739 23.7571 23.041 23.7252C22.8087 23.6933 22.6163 23.5457 22.458 23.3365H22.457C21.1272 21.5683 19.5942 20.3132 17.8594 19.5621C16.8194 19.1134 15.8565 18.9374 14.9678 19.0231C14.0808 19.1086 13.255 19.456 12.4873 20.0719H12.4863C11.9801 20.4753 11.6693 20.9479 11.5391 21.4899C11.4246 21.9665 11.4462 22.5112 11.6172 23.1285L11.7002 23.3981C11.8979 23.9959 12.2135 24.5696 12.6494 25.1188L12.6504 25.1207C13.0109 25.5855 13.4017 25.9631 13.8213 26.2555L14.0029 26.3756L14.3281 26.5748C15.1567 27.0697 16.4668 27.773 18.2627 28.6862H18.2637C21.6808 30.4331 23.9856 31.8004 25.1592 32.7848C27.0562 34.3747 28.3318 36.2225 28.9746 38.3278C29.617 40.432 29.6236 42.7803 29.0059 45.3658C28.4668 47.6218 27.3441 49.6275 25.6426 51.3805C23.935 53.1332 22.0263 54.243 19.918 54.6989C15.9262 55.5611 12.351 55.2817 9.20312 53.8463C6.05632 52.4114 3.35471 49.8296 1.09375 46.1207C0.844205 45.7116 0.740044 45.3117 0.833984 44.9362C0.928183 44.5603 1.20893 44.257 1.62207 44.0153V44.0143L5.91699 41.5162L6.05371 41.441C6.37313 41.2814 6.68439 41.2267 6.97168 41.3219C7.25847 41.417 7.47673 41.6472 7.64062 41.9664L7.70801 42.109V42.11C8.61377 44.2254 10.0358 45.7632 11.9746 46.734C13.9248 47.7104 15.9463 47.8852 18.0498 47.2584H18.0508C19.701 46.7736 20.7881 45.9179 21.3506 44.7067C21.9397 43.4359 21.7999 42.0577 20.8838 40.5475H20.8828C20.0583 39.1851 18.7369 38.0262 16.9023 37.0768C12.4584 34.7935 9.2164 32.8662 7.18652 31.2955C5.85681 30.268 4.85306 29.0018 4.17676 27.4996L4.0459 27.1959C3.41597 25.657 3.16849 24.0189 3.30176 22.2858C3.42879 20.5721 3.91447 18.9541 4.75781 17.4332C5.63298 15.8546 6.79766 14.5489 8.25098 13.5192C9.88019 12.3692 11.6732 11.67 13.627 11.4205V11.4196Z" fill="white" stroke="white" stroke-width="0.4"/>
<path d="M49.8135 12.2376C52.3344 11.4154 54.9525 11.1774 57.665 11.5228C60.4829 11.8786 63.1614 12.8348 65.6982 14.389C68.2791 15.9686 70.4852 18.0276 72.3154 20.5628H72.3145C74.2339 23.2202 75.4911 26.1293 76.083 29.2894C76.6497 32.3223 76.5645 35.3561 75.8281 38.388C75.098 41.4072 73.7884 44.1546 71.9004 46.6283L71.8994 46.6292C69.9356 49.1917 67.5062 51.2473 64.6123 52.7943H64.6113C58.4268 56.098 51.9759 56.0446 45.2812 52.6517L44.6328 52.3128C44.31 52.1382 44.0791 51.9089 43.9932 51.6126C43.9073 51.316 43.9798 50.999 44.1602 50.68L44.1611 50.679L47.1738 45.4173L47.1748 45.4164C47.3125 45.1794 47.5365 45.005 47.7998 44.931C48.0632 44.857 48.3449 44.8894 48.585 45.0208H48.584C50.952 46.2977 53.4297 46.813 56.0215 46.5716C58.4607 46.3487 60.675 45.4951 62.667 44.0081C64.6709 42.5152 66.1258 40.6249 67.0352 38.3343L67.207 37.8724C68.0202 35.5593 68.1547 33.1286 67.6064 30.5755C66.9832 27.6776 65.7761 25.3779 63.9932 23.6644C62.21 21.9507 59.8377 20.8113 56.8643 20.2542C55.2501 19.9512 53.6203 19.9719 51.9736 20.3187C50.3573 20.6593 48.855 21.2815 47.4658 22.1859C46.2344 22.9879 45.1826 23.9553 44.3096 25.0882L43.9463 25.5843C43.0198 26.9066 42.3847 28.3506 42.041 29.9173L41.9766 30.2318C41.7687 31.3161 41.656 33.8885 41.6436 37.974C41.5999 48.1367 41.6025 58.2118 41.6523 68.1986L41.6484 68.2953C41.6374 68.3927 41.6022 68.4884 41.5264 68.5648C41.4264 68.6653 41.2917 68.6966 41.1631 68.6966H33.6865C33.5431 68.6966 33.3988 68.6606 33.292 68.5531C33.1855 68.4457 33.1494 68.3011 33.1494 68.1576V13.8617C33.1495 13.4507 33.2523 13.1054 33.4932 12.8646C33.7342 12.6237 34.0799 12.5208 34.4912 12.5208H40.4238C40.7916 12.5209 41.1042 12.6138 41.3232 12.8343C41.5421 13.0548 41.6338 13.3697 41.6338 13.7396V17.4456C41.6338 17.5147 41.6396 17.5674 41.6455 17.6068C41.6769 17.582 41.7181 17.5482 41.7656 17.4974C43.9564 15.125 46.4714 13.4278 49.3105 12.4105L49.8135 12.2376Z" fill="white" stroke="white" stroke-width="0.4"/>
<path d="M204.514 13.5022C208.472 11.606 212.582 10.9648 216.839 11.5803C221.418 12.2405 225.477 14.2854 229.011 17.7073H229.012C229.08 17.7737 229.133 17.8534 229.171 17.9407C229.208 18.028 229.229 18.1221 229.23 18.217C229.232 18.3118 229.213 18.4057 229.178 18.4934C229.142 18.5813 229.089 18.662 229.021 18.7288L229.021 18.7278L209.645 38.2561C209.48 38.4218 209.289 38.5315 209.074 38.5315C208.859 38.5313 208.67 38.4209 208.508 38.2542V38.2532L204.037 33.7483H204.036C203.977 33.689 203.931 33.6183 203.899 33.5413C203.868 33.4641 203.851 33.3815 203.851 33.2981C203.851 33.2147 203.867 33.1318 203.899 33.0549C203.931 32.9795 203.978 32.9111 204.036 32.8538L216.696 20.0862L216.697 20.0852C216.8 19.9831 216.861 19.9002 216.893 19.8372C216.923 19.7754 216.918 19.7482 216.916 19.7415C216.914 19.7343 216.903 19.7086 216.845 19.6741C216.784 19.6385 216.688 19.6036 216.546 19.5745C213.184 18.8795 210.128 19.3325 207.366 20.928C205 22.2916 203.188 24.2702 201.93 26.8704L201.686 27.3987C200.435 30.2423 200.085 33.1377 200.633 36.0891C201.223 39.2733 202.786 41.9225 205.327 44.0432C208.084 46.3429 210.975 47.4102 214.006 47.2668C217.041 47.1232 220.242 45.7639 223.612 43.1614L223.615 43.1594L223.689 43.1155C223.767 43.0786 223.854 43.0643 223.94 43.0764C224.027 43.0885 224.107 43.1254 224.171 43.1819L224.23 43.2454V43.2463L228.423 48.7434H228.422C228.496 48.8399 228.55 48.9595 228.534 49.094C228.518 49.2289 228.437 49.3327 228.341 49.4084L228.34 49.4075C223.982 52.8824 219.606 54.8244 215.212 55.2122C210.816 55.6 206.421 54.431 202.034 51.7219C199.322 50.0502 197.064 47.713 195.259 44.7151C193.428 41.6789 192.392 38.5054 192.152 35.1965C191.794 30.3111 192.815 25.8782 195.221 21.9055C197.456 18.194 200.555 15.3922 204.514 13.5022Z" fill="white" stroke="white" stroke-width="0.4"/>
<path d="M159.521 13.2112C159.534 25.8968 159.531 35.2449 159.513 41.2551C159.501 46.6591 159.131 50.561 158.391 52.9377L158.237 53.3928C157.449 55.572 156.28 57.5854 154.731 59.4319C153.344 61.0913 151.717 62.5405 149.851 63.7805L149.474 64.0266C147.486 65.2878 145.351 66.251 143.068 66.9163C140.767 67.5879 138.455 67.9114 136.133 67.886V67.885C136.003 67.8843 135.879 67.8334 135.788 67.7415C135.696 67.649 135.646 67.5239 135.646 67.3938V60.718C135.646 60.6084 135.675 60.4951 135.757 60.4055C135.838 60.3173 135.947 60.278 136.055 60.2649L136.056 60.2639C143.425 59.4006 147.968 56.617 149.788 51.969C149.808 51.9159 149.822 51.8707 149.833 51.8333C149.799 51.8506 149.76 51.8728 149.715 51.9006C145.111 54.7671 140.148 55.3902 134.842 53.7708C130.899 52.5701 127.929 50.3798 125.946 47.1975C123.967 44.0192 122.982 39.8674 122.976 34.7581C122.969 28.2829 122.973 21.0912 122.985 13.1829L122.994 13.054C123.012 12.927 123.06 12.8094 123.151 12.717C123.274 12.5937 123.442 12.5491 123.616 12.5491H130.793C130.974 12.5491 131.146 12.5955 131.271 12.7219C131.396 12.848 131.441 13.0204 131.441 13.2014V13.2034C131.385 19.256 131.383 25.4035 131.433 31.6448V31.6458C131.433 31.8199 131.435 32.0797 131.441 32.425V32.428C131.448 34.4516 131.482 35.9141 131.544 36.8186L131.589 37.3674C131.704 38.6226 131.898 39.7004 132.172 40.6028L132.323 41.0569C133.128 43.2953 134.69 45.0335 137.024 46.2737C138.641 47.1342 140.66 47.3921 143.095 47.0256C145.371 46.6821 147.257 45.5191 148.757 43.5208L149.014 43.1643C150.257 41.3685 150.912 39.3486 150.981 37.0999L151.008 35.8284C151.062 32.2884 151.06 24.7386 151 13.175V13.1741C150.997 13.0029 151.037 12.8363 151.158 12.7141C151.28 12.5916 151.448 12.5491 151.621 12.5491H158.863C159.046 12.5491 159.218 12.5965 159.345 12.7239C159.47 12.8502 159.518 13.0236 159.521 13.2073V13.2112Z" fill="white" stroke="white" stroke-width="0.4"/>
<path d="M174.941 52.9946C174.941 53.1634 174.899 53.3268 174.78 53.4468C174.661 53.5668 174.498 53.6098 174.33 53.6099H166.854C166.773 53.6098 166.693 53.594 166.619 53.563C166.545 53.532 166.478 53.4863 166.421 53.4292C166.364 53.3721 166.319 53.3044 166.288 53.23C166.257 53.1555 166.242 53.0752 166.242 52.9946V52.9937C166.261 49.1143 166.256 45.2279 166.229 41.3345L166.195 37.438C166.152 33.063 166.63 29.5705 167.641 26.9722V26.9712C168.454 24.8947 169.61 22.9592 171.107 21.1646L171.383 20.8413C172.774 19.2383 174.378 17.8306 176.193 16.6187C178.117 15.3324 180.168 14.3403 182.344 13.6431L182.759 13.5132C184.835 12.8825 186.916 12.5574 189 12.5396C189.393 12.5361 189.726 12.6337 189.958 12.8677C190.189 13.101 190.287 13.436 190.287 13.8335V19.689C190.287 20.1268 190.18 20.4918 189.925 20.7388C189.669 20.9862 189.304 21.0783 188.871 21.0581H188.87C188.589 21.0437 188.158 21.0878 187.567 21.1987C186.98 21.309 186.247 21.4831 185.367 21.7212C182.363 22.5335 180.001 23.8186 178.269 25.5688L177.931 25.9253C176.064 27.9791 175.1 30.5271 175.045 33.5825C174.945 38.9176 174.91 45.3882 174.941 52.9937V52.9946Z" fill="white" stroke="white" stroke-width="0.4"/>
</svg>
